<?xml version="1.0" standalone="no"?><!DOCTYPE svg PUBLIC "-//W3C//DTD SVG 1.1//EN" "http://www.w3.org/Graphics/SVG/1.1/DTD/svg11.dtd"><svg height="4000" node-id="1" sillyvg="true" template-height="4000" template-width="4000" version="1.1" viewBox="0 0 4000 4000" width="4000" xmlns="http://www.w3.org/2000/svg" xmlns:xlink="http://www.w3.org/1999/xlink"><defs node-id="171"><linearGradient gradientUnits="userSpaceOnUse" id="SVGID_3_" node-id="12" spreadMethod="pad" x1="2102.0461" x2="2102.0461" y1="3046.2375" y2="3455.8872"><stop offset="0" stop-color="#68b2fc"></stop><stop offset="1" stop-color="#ebf0f7"></stop></linearGradient><linearGradient gradientUnits="userSpaceOnUse" id="SVGID_4_" node-id="22" spreadMethod="pad" x1="1153.1509" x2="1243.8296" y1="933.4631" y2="933.4631"><stop offset="0" stop-color="#68b2fc"></stop><stop offset="1" stop-color="#529bf7"></stop></linearGradient><linearGradient gradientUnits="userSpaceOnUse" id="SVGID_5_" node-id="27" spreadMethod="pad" x1="1565.2626" x2="1655.9413" y1="930.1258" y2="930.1258"><stop offset="0" stop-color="#68b2fc"></stop><stop offset="1" stop-color="#529bf7"></stop></linearGradient><linearGradient gradientUnits="userSpaceOnUse" id="SVGID_6_" node-id="32" spreadMethod="pad" x1="1977.3741" x2="2068.053" y1="819.4592" y2="819.4592"><stop offset="0" stop-color="#68b2fc"></stop><stop offset="1" stop-color="#529bf7"></stop></linearGradient><linearGradient gradientUnits="userSpaceOnUse" id="SVGID_7_" node-id="37" spreadMethod="pad" x1="2389.4856" x2="2480.1646" y1="804.1865" y2="804.1865"><stop offset="0" stop-color="#68b2fc"></stop><stop offset="1" stop-color="#529bf7"></stop></linearGradient><linearGradient gradientUnits="userSpaceOnUse" id="SVGID_8_" node-id="42" spreadMethod="pad" x1="2801.5972" x2="2892.2764" y1="782.7234" y2="782.7234"><stop offset="0" stop-color="#68b2fc"></stop><stop offset="1" stop-color="#529bf7"></stop></linearGradient><linearGradient gradientUnits="userSpaceOnUse" id="SVGID_9_" node-id="69" spreadMethod="pad" x1="3569.4663" x2="3673.6887" y1="2922.815" y2="2922.815"><stop offset="0" stop-color="#4085f0"></stop><stop offset="1" stop-color="#275dc9"></stop></linearGradient><linearGradient gradientUnits="userSpaceOnUse" id="SVGID_10_" node-id="73" spreadMethod="pad" x1="2882.6636" x2="2964.3782" y1="2707.2026" y2="2707.2026"><stop offset="0" stop-color="#4085f0"></stop><stop offset="1" stop-color="#275dc9"></stop></linearGradient><linearGradient gradientUnits="userSpaceOnUse" id="SVGID_11_" node-id="148" spreadMethod="pad" x1="748.4457" x2="3642.134" y1="3536.0002" y2="3536.0002"><stop offset="0" stop-color="#68b2fc"></stop><stop offset="1" stop-color="#529bf7"></stop></linearGradient></defs><g node-id="531"><path d="M 1307.60 3117.40 C 1498.40 3034.40 1786.20 3221.40 1806.80 3236.10 C 1816.20 3103.90 1918.60 2999.90 2041.20 2989.60 C 2146.70 2980.70 2250.20 3042.80 2296.90 3144.80 C 2307.20 3133.10 2493.80 2926.30 2756.50 2971.30 C 2972.00 3008.20 3144.30 3198.40 3167.40 3437.00 C 2457.10 3437.00 1746.90 3437.00 1036.60 3437.00 C 1045.60 3422.50 1118.60 3199.60 1307.60 3117.40 Z" fill="url(#SVGID_3_)" fill-rule="nonzero" group-id="1" node-id="232" stroke="none" target-height="510.69995" target-width="2130.7998" target-x="1036.6" target-y="2926.3"></path><path d="M 865.30 828.10 C 897.60 818.10 924.70 798.80 947.60 774.60 C 958.80 740.50 966.60 705.10 970.60 668.80 C 977.00 615.70 972.40 561.70 973.70 507.90 C 955.10 501.10 932.70 499.70 926.50 501.30 C 915.50 504.30 917.00 545.90 911.50 621.90 C 905.70 693.70 828.40 772.50 749.20 835.10 C 788.40 836.40 827.80 839.70 865.30 828.10 Z" fill="#ffde70" fill-rule="nonzero" group-id="1" node-id="234" stroke="none" target-height="340" target-width="227.79999" target-x="749.2" target-y="499.7"></path><path d="M 865.30 828.10 C 827.80 839.70 788.40 836.40 749.30 835.10 C 663.00 903.40 574.50 952.60 574.50 952.60 C 538.30 1039.50 617.20 1074.80 678.60 1088.90 C 806.10 1024.10 903.40 909.70 947.60 774.50 C 924.70 798.80 897.70 818.00 865.30 828.10 Z" fill="#ffcf4a" fill-rule="nonzero" group-id="1" node-id="236" stroke="none" target-height="314.40002" target-width="409.3" target-x="538.3" target-y="774.5"></path><path d="M 973.80 507.80 C 972.50 561.60 977.10 615.70 970.70 668.70 C 950.70 848.80 838.40 1007.70 678.60 1088.90 C 713.10 1096.80 742.00 1098.10 742.00 1098.10 C 742.00 1098.10 886.20 934.50 945.00 859.70 C 1003.80 784.90 1000.30 565.30 1000.70 535.30 C 1000.90 522.00 988.60 513.20 973.80 507.80 Z" fill="#ffb114" fill-rule="nonzero" group-id="1" node-id="238" stroke="none" target-height="590.3" target-width="325.2" target-x="678.6" target-y="507.8"></path><path d="M 3068.70 1087.40 L 1091.80 1087.40 C 1053.60 1087.40 1022.70 1056.40 1022.70 1018.30 L 1022.70 434.60 C 1022.70 396.40 1053.70 365.50 1091.80 365.50 L 3068.70 365.50 C 3106.90 365.50 3137.80 396.50 3137.80 434.60 L 3137.80 1018.20 C 3137.80 1056.40 3106.80 1087.40 3068.70 1087.40 Z" fill="#102140" fill-rule="nonzero" group-id="1" node-id="240" stroke="none" target-height="721.9" target-width="2115.1" target-x="1022.7" target-y="365.5"></path><path d="M 3034.20 1087.40 L 1057.30 1087.40 C 1019.10 1087.40 988.20 1056.40 988.20 1018.30 L 988.20 434.60 C 988.20 396.40 1019.20 365.50 1057.30 365.50 L 3034.20 365.50 C 3072.40 365.50 3103.30 396.50 3103.30 434.60 L 3103.30 1018.20 C 3103.30 1056.40 3072.40 1087.40 3034.20 1087.40 Z" fill="#ffffff" fill-rule="nonzero" group-id="1" node-id="242" stroke="none" target-height="721.9" target-width="2115.1" target-x="988.2" target-y="365.5"></path><g node-id="532"><path d="M 1153.20 886.90 L 1243.90 886.90 L 1243.90 980.00 L 1153.20 980.00 Z" fill="url(#SVGID_4_)" fill-rule="nonzero" group-id="1,2" node-id="246" stroke="none" target-height="93.099976" target-width="90.70007" target-x="1153.2" target-y="886.9"></path><path d="M 1359.20 832.40 L 1449.90 832.40 L 1449.90 980.00 L 1359.20 980.00 Z" fill="#6584c6" fill-rule="nonzero" group-id="1,2" node-id="248" stroke="none" target-height="147.59998" target-width="90.70007" target-x="1359.2" target-y="832.4"></path><path d="M 1565.30 880.20 L 1656.00 880.20 L 1656.00 980.00 L 1565.30 980.00 Z" fill="url(#SVGID_5_)" fill-rule="nonzero" group-id="1,2" node-id="250" stroke="none" target-height="99.79999" target-width="90.69995" target-x="1565.3" target-y="880.2"></path><path d="M 1771.30 771.60 L 1862.00 771.60 L 1862.00 980.00 L 1771.30 980.00 Z" fill="#6584c6" fill-rule="nonzero" group-id="1,2" node-id="252" stroke="none" target-height="208.40002" target-width="90.69995" target-x="1771.3" target-y="771.6"></path><path d="M 1977.40 658.90 L 2068.10 658.90 L 2068.10 980.00 L 1977.40 980.00 Z" fill="url(#SVGID_6_)" fill-rule="nonzero" group-id="1,2" node-id="254" stroke="none" target-height="321.09998" target-width="90.70007" target-x="1977.4" target-y="658.9"></path><path d="M 2183.40 771.60 L 2274.10 771.60 L 2274.10 980.00 L 2183.40 980.00 Z" fill="#6584c6" fill-rule="nonzero" group-id="1,2" node-id="256" stroke="none" target-height="208.40002" target-width="90.700195" target-x="2183.4" target-y="771.6"></path><path d="M 2389.50 628.40 L 2480.20 628.40 L 2480.20 980.00 L 2389.50 980.00 Z" fill="url(#SVGID_7_)" fill-rule="nonzero" group-id="1,2" node-id="258" stroke="none" target-height="351.59998" target-width="90.69995" target-x="2389.5" target-y="628.4"></path><path d="M 2595.50 684.80 L 2686.20 684.80 L 2686.20 980.00 L 2595.50 980.00 Z" fill="#6584c6" fill-rule="nonzero" group-id="1,2" node-id="260" stroke="none" target-height="295.2" target-width="90.69995" target-x="2595.5" target-y="684.8"></path><path d="M 2801.60 585.40 L 2892.30 585.40 L 2892.30 980.00 L 2801.60 980.00 Z" fill="url(#SVGID_8_)" fill-rule="nonzero" group-id="1,2" node-id="262" stroke="none" target-height="394.59998" target-width="90.69995" target-x="2801.6" target-y="585.4"></path></g><path d="M 71.40 3434.90 L 3640.90 3434.90" fill="none" group-id="1" node-id="265" stroke="#1a1a1a" stroke-linecap="round" stroke-width="3" target-height="0" target-width="3569.5" target-x="71.4" target-y="3434.9"></path><path d="M 859.50 1039.30 L 859.50 3434.90" fill="none" group-id="1,3" node-id="269" stroke="#1a1a1a" stroke-linecap="round" stroke-width="3" target-height="2395.5999" target-width="0" target-x="859.5" target-y="1039.3"></path><path d="M 1212.20 1039.30 L 1212.20 3434.90" fill="none" group-id="1,3" node-id="271" stroke="#1a1a1a" stroke-linecap="round" stroke-width="3" target-height="2395.5999" target-width="0" target-x="1212.2" target-y="1039.3"></path><path d="M 859.50 1405.50 L 1212.20 1405.50" fill="none" group-id="1,3,16" node-id="275" stroke="#1a1a1a" stroke-linecap="round" stroke-width="3" target-height="0" target-width="352.69995" target-x="859.5" target-y="1405.5"></path><path d="M 859.50 1738.10 L 1212.20 1738.10" fill="none" group-id="1,3,16" node-id="277" stroke="#1a1a1a" stroke-linecap="round" stroke-width="3" target-height="0" target-width="352.69995" target-x="859.5" target-y="1738.1"></path><path d="M 859.50 2070.80 L 1212.20 2070.80" fill="none" group-id="1,3,16" node-id="279" stroke="#1a1a1a" stroke-linecap="round" stroke-width="3" target-height="0" target-width="352.69995" target-x="859.5" target-y="2070.8"></path><path d="M 859.50 2403.40 L 1212.20 2403.40" fill="none" group-id="1,3,16" node-id="281" stroke="#1a1a1a" stroke-linecap="round" stroke-width="3" target-height="0" target-width="352.69995" target-x="859.5" target-y="2403.4"></path><path d="M 859.50 2736.00 L 1212.20 2736.00" fill="none" group-id="1,3,16" node-id="283" stroke="#1a1a1a" stroke-linecap="round" stroke-width="3" target-height="0" target-width="352.69995" target-x="859.5" target-y="2736"></path><path d="M 859.50 3068.60 L 1212.20 3068.60" fill="none" group-id="1,3,16" node-id="285" stroke="#1a1a1a" stroke-linecap="round" stroke-width="3" target-height="0" target-width="352.69995" target-x="859.5" target-y="3068.6"></path><path d="M 3510.70 1815.90 C 3510.70 1815.90 3321.40 2227.80 3328.20 2471.50 C 3307.20 2406.40 3209.40 2049.00 3510.70 1815.90 Z" fill="#339e7e" fill-rule="nonzero" group-id="1,4,17" node-id="293" stroke="none" target-height="655.6" target-width="301.30005" target-x="3209.4" target-y="1815.9"></path><path d="M 3510.70 1815.90 C 3684.30 2127.50 3331.70 2481.80 3331.70 2481.80 C 3331.70 2481.80 3330.40 2478.20 3328.20 2471.50 C 3321.50 2227.80 3510.70 1815.90 3510.70 1815.90 Z" fill="#127755" fill-rule="nonzero" group-id="1,4,17" node-id="295" stroke="none" target-height="665.9" target-width="362.80005" target-x="3321.5" target-y="1815.9"></path><path d="M 3389.50 2753.80 C 3389.50 2753.80 3356.00 2740.30 3330.20 2502.50 C 3329.10 2492.50 3328.40 2482.10 3328.20 2471.40" fill="none" group-id="1,4,17" node-id="297" stroke="#1a1a1a" stroke-linecap="round" stroke-width="3" target-height="282.40015" target-width="61.30005" target-x="3328.2" target-y="2471.4"></path><path d="M 3928.60 2129.80 C 3901.50 2427.50 3465.00 2519.30 3465.00 2519.30 C 3465.00 2519.30 3465.80 2516.10 3467.60 2510.40 C 3583.20 2336.50 3924.10 2132.40 3928.60 2129.80 C 3928.60 2129.80 3928.60 2129.80 3928.60 2129.80 Z" fill="#00593b" fill-rule="nonzero" group-id="1,4,18" node-id="302" stroke="none" target-height="389.5" target-width="463.6001" target-x="3465" target-y="2129.8"></path><path d="M 3928.50 2129.80 C 3924.10 2132.40 3583.20 2336.50 3467.50 2510.30 C 3484.50 2454.80 3590.40 2159.00 3928.50 2129.80 Z" fill="#339e7e" fill-rule="nonzero" group-id="1,4,18" node-id="304" stroke="none" target-height="380.5" target-width="461" target-x="3467.5" target-y="2129.8"></path><path d="M 3372.20 2737.00 C 3372.20 2737.00 3354.20 2712.40 3453.60 2533.10 C 3457.80 2525.50 3462.50 2517.90 3467.60 2510.20" fill="none" group-id="1,4,18" node-id="306" stroke="#1a1a1a" stroke-linecap="round" stroke-width="3" target-height="226.80005" target-width="113.40015" target-x="3354.2" target-y="2510.2"></path><path d="M 3040.40 2278.30 C 3041.60 2281.10 3137.00 2496.30 3232.40 2578.00 C 3235.70 2579.50 3237.60 2580.20 3237.60 2580.20 C 3237.60 2580.20 3217.60 2318.90 3040.40 2278.30 C 3040.40 2278.30 3040.40 2278.30 3040.40 2278.30 Z" fill="#00593b" fill-rule="nonzero" group-id="1,4,19" node-id="311" stroke="none" target-height="301.8999" target-width="197.2002" target-x="3040.4" target-y="2278.3"></path><path d="M 3232.40 2578.00 C 3137.00 2496.30 3041.60 2281.10 3040.40 2278.30 C 3030.70 2477.20 3200.40 2563.50 3232.40 2578.00 Z" fill="#127755" fill-rule="nonzero" group-id="1,4,19" node-id="313" stroke="none" target-height="299.69995" target-width="201.69995" target-x="3030.7" target-y="2278.3"></path><path d="M 3673.70 2904.90 L 3603.60 2974.90 L 3569.50 2940.80 L 3639.50 2870.70 Z" fill="url(#SVGID_9_)" fill-rule="nonzero" group-id="1,4" node-id="316" stroke="none" target-height="104.19995" target-width="104.19995" target-x="3569.5" target-y="2870.7"></path><path d="M 2930.30 2749.20 L 2882.70 2695.30 L 2916.70 2665.20 L 2964.40 2719.10 Z" fill="url(#SVGID_10_)" fill-rule="nonzero" group-id="1,4" node-id="318" stroke="none" target-height="84" target-width="81.69995" target-x="2882.7" target-y="2665.2"></path><path d="M 3387.10 2143.30 L 3349.20 2069.00" fill="none" group-id="1,4" node-id="320" stroke="#1a1a1a" stroke-linecap="round" stroke-width="2" target-height="74.30005" target-width="37.900146" target-x="3349.2" target-y="2069"></path><path d="M 3410.90 2069.90 L 3378.30 1996.30" fill="none" group-id="1,4" node-id="322" stroke="#1a1a1a" stroke-linecap="round" stroke-width="2" target-height="73.59985" target-width="32.599854" target-x="3378.3" target-y="1996.3"></path><path d="M 3444.70 1976.20 L 3426.80 1927.70" fill="none" group-id="1,4" node-id="324" stroke="#1a1a1a" stroke-linecap="round" stroke-width="2" target-height="48.5" target-width="17.899902" target-x="3426.8" target-y="1927.7"></path><path d="M 3310.30 2270.90 C 3310.30 2270.90 3316.20 2330.80 3333.30 2379.30" fill="none" group-id="1,4" node-id="326" stroke="#1a1a1a" stroke-linecap="round" stroke-width="2" target-height="108.40015" target-width="23" target-x="3310.3" target-y="2270.9"></path><path d="M 3337.10 2179.60 L 3354.00 2251.80" fill="none" group-id="1,4" node-id="328" stroke="#1a1a1a" stroke-linecap="round" stroke-width="2" target-height="72.19995" target-width="16.899902" target-x="3337.1" target-y="2179.6"></path><path d="M 3559.10 2357.20 L 3532.60 2433.90" fill="none" group-id="1,4" node-id="330" stroke="#1a1a1a" stroke-linecap="round" stroke-width="2" target-height="76.69995" target-width="26.5" target-x="3532.6" target-y="2357.2"></path><path d="M 3611.80 2293.40 L 3602.70 2368.40" fill="none" group-id="1,4" node-id="332" stroke="#1a1a1a" stroke-linecap="round" stroke-width="2" target-height="75" target-width="9.100098" target-x="3602.7" target-y="2293.4"></path><path d="M 3688.70 2224.40 L 3678.50 2302.10" fill="none" group-id="1,4" node-id="334" stroke="#1a1a1a" stroke-linecap="round" stroke-width="2" target-height="77.700195" target-width="10.199951" target-x="3678.5" target-y="2224.4"></path><path d="M 3756.10 2194.90 L 3747.50 2250.20" fill="none" group-id="1,4" node-id="336" stroke="#1a1a1a" stroke-linecap="round" stroke-width="2" target-height="55.30005" target-width="8.600098" target-x="3747.5" target-y="2194.9"></path><path d="M 3830.60 2263.90 C 3827.50 2262.90 3747.50 2250.30 3747.50 2250.30" fill="none" group-id="1,4" node-id="338" stroke="#ffffff" stroke-linecap="round" stroke-width="2" target-height="13.5998535" target-width="83.1001" target-x="3747.5" target-y="2250.3"></path><path d="M 3678.60 2300.60 L 3800.70 2329.50" fill="none" group-id="1,4" node-id="340" stroke="#ffffff" stroke-linecap="round" stroke-width="2" target-height="28.899902" target-width="122.09985" target-x="3678.6" target-y="2300.6"></path><path d="M 3604.50 2363.00 L 3724.40 2392.60" fill="none" group-id="1,4" node-id="342" stroke="#ffffff" stroke-linecap="round" stroke-width="2" target-height="29.600098" target-width="119.8999" target-x="3604.5" target-y="2363"></path><path d="M 3534.20 2429.30 L 3617.60 2445.10" fill="none" group-id="1,4" node-id="344" stroke="#ffffff" stroke-linecap="round" stroke-width="2" target-height="15.800049" target-width="83.40015" target-x="3534.2" target-y="2429.3"></path><path d="M 3530.30 1950.50 L 3446.30 1971.80" fill="none" group-id="1,4" node-id="346" stroke="#ffffff" stroke-linecap="round" stroke-width="2" target-height="21.300049" target-width="84" target-x="3446.3" target-y="1950.5"></path><path d="M 3539.30 2042.00 L 3411.90 2067.10" fill="none" group-id="1,4" node-id="348" stroke="#ffffff" stroke-linecap="round" stroke-width="2" target-height="25.100098" target-width="127.40015" target-x="3411.9" target-y="2042"></path><path d="M 3387.80 2141.10 L 3523.30 2126.10" fill="none" group-id="1,4" node-id="350" stroke="#ffffff" stroke-linecap="round" stroke-width="2" target-height="15" target-width="135.5" target-x="3387.8" target-y="2126.1"></path><path d="M 3355.10 2252.90 L 3482.40 2225.70" fill="none" group-id="1,4" node-id="352" stroke="#ffffff" stroke-linecap="round" stroke-width="2" target-height="27.199951" target-width="127.299805" target-x="3355.1" target-y="2225.7"></path><path d="M 3333.80 2376.10 L 3418.00 2351.10" fill="none" group-id="1,4" node-id="354" stroke="#ffffff" stroke-linecap="round" stroke-width="2" target-height="25" target-width="84.19995" target-x="3333.8" target-y="2351.1"></path><path d="M 3352.80 3356.90 C 3370.80 3341.50 3383.60 3320.90 3399.10 3300.40 C 3424.80 3267.00 3427.40 3225.90 3432.50 3184.80 C 3450.40 3059.60 3409.90 2929.40 3467.50 2814.20 L 3166.80 2814.20 L 3240.40 3387.40 C 3281.70 3389.80 3323.80 3381.50 3352.80 3356.90 Z" fill="#b080b0" fill-rule="nonzero" group-id="1" node-id="357" stroke="none" target-height="575.6001" target-width="300.69995" target-x="3166.8" target-y="2814.2"></path><path d="M 3432.50 3184.70 C 3427.40 3225.80 3424.80 3266.90 3399.10 3300.30 C 3383.70 3320.90 3370.80 3341.40 3352.80 3356.80 C 3323.80 3381.50 3281.70 3389.70 3240.40 3387.20 L 3246.80 3436.90 L 3427.50 3436.90 L 3507.50 2814.00 L 3467.50 2814.00 C 3409.90 2929.20 3450.40 3059.50 3432.50 3184.70 Z" fill="#572658" fill-rule="nonzero" group-id="1" node-id="359" stroke="none" target-height="622.8999" target-width="267.1001" target-x="3240.4" target-y="2814"></path><path d="M 1655.00 3337.10 C 1655.00 3337.10 1501.00 3309.80 1463.30 3344.40 C 1413.90 3389.80 1458.00 3431.20 1458.00 3431.20 C 1458.00 3431.20 1729.20 3445.20 1737.20 3431.20 C 1745.20 3417.20 1751.20 3348.40 1737.20 3342.40 C 1723.20 3336.40 1655.00 3337.10 1655.00 3337.10 Z" fill="#1a1a1a" fill-rule="nonzero" group-id="1" node-id="361" stroke="none" target-height="135.3999" target-width="337.29993" target-x="1413.9" target-y="3309.8"></path><path d="M 1714.50 3184.80 L 1706.50 3341.70 C 1706.50 3341.70 1622.30 3358.40 1604.30 3341.70 C 1624.30 3230.90 1624.30 3230.90 1624.30 3230.90 L 1714.50 3184.80 Z" fill="#b080b0" fill-rule="nonzero" group-id="1" node-id="363" stroke="none" target-height="173.59985" target-width="110.19995" target-x="1604.3" target-y="3184.8"></path><path d="M 1667.10 3215.50 C 1728.80 3081.90 1700.50 2938.00 1723.60 2794.00 C 1754.40 2609.30 1881.70 2456.30 2047.20 2385.70 C 2097.10 2320.50 2136.00 2277.10 2136.00 2277.10 C 2136.00 2277.10 2134.00 1998.60 1837.40 2172.90 C 1525.30 2534.00 1587.80 3159.20 1602.40 3274.20 C 1631.70 3266.90 1654.50 3244.40 1667.10 3215.50 Z" fill="#152a52" fill-rule="nonzero" group-id="1" node-id="365" stroke="none" target-height="1275.6" target-width="610.69995" target-x="1525.3" target-y="1998.6"></path><path d="M 1723.60 2794.10 C 1700.50 2938.00 1728.70 3081.90 1667.10 3215.60 C 1654.50 3244.40 1631.70 3266.90 1602.40 3274.30 C 1603.90 3286.30 1604.90 3292.70 1604.90 3292.70 C 1620.90 3320.40 1719.10 3247.00 1719.10 3247.00 C 1719.10 3247.00 1791.70 2915.80 1845.30 2737.10 C 1881.30 2617.30 1975.60 2479.20 2047.10 2385.80 C 1881.70 2456.40 1754.40 2609.40 1723.60 2794.10 Z" fill="#102140" fill-rule="nonzero" group-id="1" node-id="367" stroke="none" target-height="934.59985" target-width="444.69995" target-x="1602.4" target-y="2385.8"></path><path d="M 2599.90 3257.90 C 2599.90 3257.90 2471.60 3350.80 2447.60 3385.50 C 2423.60 3420.20 2442.60 3436.90 2442.60 3436.90 C 2442.60 3436.90 2538.70 3461.30 2584.40 3420.80 C 2624.30 3385.60 2731.10 3320.00 2691.10 3258.80 C 2651.00 3197.80 2629.90 3211.90 2599.90 3257.90 Z" fill="#1a1a1a" fill-rule="nonzero" group-id="1" node-id="369" stroke="none" target-height="263.5" target-width="307.5" target-x="2423.6" target-y="3197.8"></path><path d="M 2546.80 3170.80 C 2546.80 3170.80 2596.20 3196.20 2638.60 3229.20 C 2678.90 3260.60 2568.50 3287.00 2568.50 3287.00 L 2472.70 3228.90 L 2546.80 3170.80 Z" fill="#b080b0" fill-rule="nonzero" group-id="1" node-id="371" stroke="none" target-height="116.19995" target-width="206.19995" target-x="2472.7" target-y="3170.8"></path><path d="M 2435.40 3097.30 C 2378.90 3048.50 2312.10 3020.20 2273.50 2953.40 C 2242.70 2902.00 2229.80 2850.60 2217.00 2794.10 C 2209.30 2765.80 2204.20 2737.60 2201.60 2711.90 C 2183.60 2573.10 2211.90 2442.10 2186.20 2303.30 C 2181.10 2285.30 2168.20 2269.90 2155.40 2251.90 C 2145.10 2236.50 2145.10 2215.90 2134.80 2200.50 C 2106.50 2154.30 2079.10 2110.70 2055.00 2065.20 C 1937.90 2112.90 1925.60 2285.20 1925.60 2285.20 C 1925.60 2285.20 1999.70 2768.10 2085.90 2934.40 C 2172.10 3100.70 2484.70 3291.10 2512.70 3275.00 C 2535.90 3261.70 2579.70 3240.20 2575.90 3197.90 C 2534.40 3171.50 2499.00 3140.90 2453.40 3120.40 C 2445.70 3115.30 2443.10 3105.00 2435.40 3097.30 Z" fill="#152a52" fill-rule="nonzero" group-id="1" node-id="373" stroke="none" target-height="1225.9001" target-width="654.1" target-x="1925.6" target-y="2065.2"></path><path d="M 2292.30 2707.20 C 2316.30 2513.50 2348.40 2078.40 2146.00 2054.50 C 2110.20 2050.30 2080.20 2054.80 2055.00 2065.10 C 2079.10 2110.60 2106.50 2154.20 2134.80 2200.40 C 2145.10 2215.80 2145.10 2236.40 2155.40 2251.80 C 2168.20 2269.80 2181.10 2285.20 2186.20 2303.20 C 2211.90 2442.00 2183.60 2573.00 2201.60 2711.80 C 2204.20 2737.50 2209.30 2765.80 2217.00 2794.00 C 2229.80 2850.50 2242.70 2901.90 2273.50 2953.30 C 2312.00 3020.10 2378.90 3048.40 2435.40 3097.20 C 2443.10 3104.90 2445.70 3115.20 2453.40 3120.30 C 2499.00 3140.80 2534.40 3171.40 2575.90 3197.80 C 2575.10 3189.00 2572.30 3179.40 2566.80 3168.70 C 2534.80 3106.70 2268.20 2900.90 2292.30 2707.20 Z" fill="#102140" fill-rule="nonzero" group-id="1" node-id="375" stroke="none" target-height="1147.5" target-width="520.8999" target-x="2055" target-y="2050.3"></path><path d="M 1939.00 2361.00 C 1939.00 2361.00 1944.60 2448.40 1963.30 2506.30" fill="none" group-id="1" node-id="377" stroke="#1a1a1a" stroke-linecap="round" stroke-width="2" target-height="145.30005" target-width="24.300049" target-x="1939" target-y="2361"></path><path d="M 1342.80 1087.50 C 1326.60 1087.40 1315.30 1087.40 1315.30 1087.40 C 1315.30 1087.40 1315.60 1112.00 1332.80 1121.90 C 1353.10 1133.60 1391.50 1131.80 1403.40 1146.90 C 1425.40 1175.00 1439.50 1233.10 1439.50 1233.10 C 1439.50 1233.10 1450.30 1236.00 1462.80 1237.30 C 1457.60 1211.90 1447.90 1187.30 1438.20 1164.70 C 1419.30 1124.30 1373.90 1116.90 1342.80 1087.50 Z" fill="#db6767" fill-rule="nonzero" group-id="1" node-id="379" stroke="none" target-height="149.90002" target-width="147.5" target-x="1315.3" target-y="1087.4"></path><path d="M 1520.80 1087.40 C 1520.80 1087.40 1457.20 1087.20 1441.60 1087.40 C 1418.30 1087.70 1372.40 1087.60 1342.80 1087.50 C 1373.90 1116.90 1419.30 1124.30 1438.30 1164.70 C 1448.00 1187.30 1457.70 1211.90 1462.90 1237.30 C 1479.00 1239.00 1497.90 1238.00 1500.70 1225.10 C 1500.70 1225.10 1467.60 1118.90 1507.70 1112.90 C 1547.80 1106.90 1520.80 1087.40 1520.80 1087.40 Z" fill="#fc9590" fill-rule="nonzero" group-id="1" node-id="381" stroke="none" target-height="151.80005" target-width="205" target-x="1342.8" target-y="1087.2"></path><path d="M 1502.60 1617.00 C 1600.80 1611.60 1715.00 1638.50 1778.30 1709.70 L 1810.90 1518.40 C 1810.90 1518.40 1579.70 1589.30 1540.90 1531.60 C 1499.80 1470.70 1523.70 1259.20 1520.90 1220.00 C 1519.30 1197.70 1456.80 1184.90 1426.30 1207.90 C 1432.00 1336.30 1422.10 1464.80 1429.20 1595.30 C 1450.00 1612.10 1479.90 1618.70 1502.60 1617.00 Z" fill="#ef5668" fill-rule="nonzero" group-id="1" node-id="383" stroke="none" target-height="524.7999" target-width="388.80005" target-x="1422.1" target-y="1184.9"></path><path d="M 1502.60 1617.00 C 1479.90 1618.60 1450.00 1612.00 1429.10 1595.30 C 1429.50 1603.40 1430.00 1611.40 1430.60 1619.50 C 1430.60 1640.10 1448.60 1655.50 1469.10 1658.00 C 1541.10 1663.10 1615.60 1642.60 1674.70 1688.80 C 1708.20 1714.70 1728.20 1751.40 1737.80 1791.50 C 1750.70 1813.30 1757.60 1830.20 1757.60 1830.20 L 1778.20 1709.60 C 1715.00 1638.60 1600.80 1611.70 1502.60 1617.00 Z" fill="#eb485c" fill-rule="nonzero" group-id="1" node-id="385" stroke="none" target-height="234.8999" target-width="349.09998" target-x="1429.1" target-y="1595.3"></path><path d="M 1674.80 1689.00 C 1615.70 1642.70 1541.20 1663.30 1469.20 1658.20 C 1448.60 1655.60 1430.70 1640.20 1430.70 1619.70 C 1420.80 1480.90 1432.30 1344.40 1426.20 1208.10 C 1418.40 1214.00 1412.60 1222.20 1410.60 1233.30 C 1410.60 1233.30 1413.60 1467.70 1411.60 1606.00 C 1409.60 1744.30 1582.10 1667.30 1655.80 1705.20 C 1692.50 1724.10 1720.60 1762.50 1738.00 1791.80 C 1728.30 1751.60 1708.30 1714.90 1674.80 1689.00 Z" fill="#d1334a" fill-rule="nonzero" group-id="1" node-id="387" stroke="none" target-height="583.7001" target-width="328.40002" target-x="1409.6" target-y="1208.1"></path><path d="M 2089.50 1550.90 C 2085.90 1541.00 2074.70 1528.10 2074.70 1528.10 C 2074.70 1528.10 1938.00 1487.90 1837.10 1509.00 C 1837.80 1509.10 1838.60 1509.10 1839.30 1509.20 C 1923.40 1523.80 2005.90 1552.40 2089.50 1550.90 Z" fill="#eb485c" fill-rule="nonzero" group-id="1" node-id="389" stroke="none" target-height="64.5" target-width="252.40002" target-x="1837.1" target-y="1487.9"></path><path d="M 2120.10 1635.50 C 2106.40 1596.90 2095.70 1567.50 2089.50 1550.90 C 2005.90 1552.40 1923.40 1523.90 1839.20 1509.10 C 1838.50 1509.00 1837.70 1509.00 1837.00 1508.90 C 1818.20 1512.80 1801.00 1519.10 1786.60 1528.60 L 1750.00 1683.30 C 1749.60 1788.70 1759.10 1974.00 1772.90 2079.70 C 1834.90 2101.10 1912.40 2089.30 1967.70 2059.00 C 2061.50 2010.80 2155.30 1932.50 2172.60 1821.80 C 2131.40 1777.90 2127.80 1704.40 2120.10 1635.50 Z" fill="#ef5668" fill-rule="nonzero" group-id="1" node-id="391" stroke="none" target-height="592.2001" target-width="423.00012" target-x="1749.6" target-y="1508.9"></path><path d="M 2175.10 1795.00 C 2154.60 1733.80 2135.50 1678.90 2120.10 1635.50 C 2123.70 1667.40 2118.80 1700.40 2124.80 1730.80 C 2131.70 1766.10 2150.50 1798.20 2172.70 1821.80 C 2172.90 1820.30 2173.20 1818.90 2173.40 1817.40 C 2174.10 1810.00 2174.70 1802.50 2175.10 1795.00 Z" fill="#d1334a" fill-rule="nonzero" group-id="1" node-id="393" stroke="none" target-height="186.30005" target-width="56.30005" target-x="2118.8" target-y="1635.5"></path><path d="M 2175.10 1795.00 C 2174.70 1802.50 2174.20 1810.00 2173.40 1817.50 C 2158.00 1930.60 2062.90 2010.20 1967.80 2059.10 C 1912.60 2089.40 1835.10 2101.10 1773.00 2079.80 C 1782.10 2149.50 1796.10 2202.30 1817.40 2215.80 C 1895.60 2265.20 2253.30 2166.70 2271.30 2106.20 C 2241.90 2000.30 2206.80 1890.00 2175.10 1795.00 Z" fill="#eb485c" fill-rule="nonzero" group-id="1" node-id="395" stroke="none" target-height="470.19995" target-width="498.30005" target-x="1773" target-y="1795"></path><path d="M 2730.90 1095.40 C 2689.80 1113.40 2638.40 1105.70 2602.40 1139.10 C 2584.10 1157.40 2585.10 1183.70 2578.70 1207.90 C 2599.80 1210.40 2613.50 1208.00 2613.50 1208.00 L 2627.70 1134.00 C 2681.00 1136.50 2715.60 1112.80 2749.10 1087.40 C 2749.10 1087.40 2747.00 1087.30 2743.20 1087.10 C 2739.90 1090.40 2735.80 1093.30 2730.90 1095.40 Z" fill="#db6767" fill-rule="nonzero" group-id="1" node-id="397" stroke="none" target-height="123.30005" target-width="170.40015" target-x="2578.7" target-y="1087.1"></path><path d="M 2730.90 1095.40 C 2735.70 1093.30 2739.80 1090.50 2743.30 1087.10 C 2721.10 1085.90 2641.30 1081.70 2607.30 1082.90 C 2591.50 1083.40 2555.20 1088.90 2544.70 1088.90 C 2527.30 1088.90 2548.00 1201.40 2548.00 1201.40 C 2559.20 1204.90 2569.60 1206.90 2578.60 1207.90 C 2585.00 1183.70 2584.00 1157.40 2602.30 1139.10 C 2638.40 1105.60 2689.80 1113.30 2730.90 1095.40 Z" fill="#fc9590" fill-rule="nonzero" group-id="1" node-id="399" stroke="none" target-height="126.20007" target-width="216" target-x="2527.3" target-y="1081.7"></path><path d="M 2318.20 1531.60 C 2260.40 1551.30 2212.20 1551.70 2212.20 1551.70 L 2045.80 1523.00 L 2055.60 1551.40 C 2141.20 1578.90 2252.90 1583.60 2318.20 1531.60 Z" fill="#eb485c" fill-rule="nonzero" group-id="1" node-id="401" stroke="none" target-height="60.599976" target-width="272.3999" target-x="2045.8" target-y="1523"></path><path d="M 2532.80 1201.10 C 2532.80 1201.10 2524.80 1227.10 2502.70 1335.40 C 2475.00 1453.80 2389.40 1507.40 2318.20 1531.70 C 2252.90 1583.70 2141.30 1579.00 2055.60 1551.60 L 2120.00 1738.30 C 2120.00 1738.30 2120.70 1735.50 2124.80 1731.00 C 2140.40 1681.60 2207.60 1675.50 2253.00 1671.20 C 2490.50 1642.40 2591.40 1394.10 2593.30 1183.50 C 2563.20 1182.10 2532.80 1201.10 2532.80 1201.10 Z" fill="#ef5668" fill-rule="nonzero" group-id="1" node-id="403" stroke="none" target-height="556.2001" target-width="537.69995" target-x="2055.6" target-y="1182.1"></path><path d="M 2630.90 1201.10 C 2620.30 1188.60 2606.80 1183.90 2593.20 1183.40 C 2591.30 1394.00 2490.40 1642.30 2252.90 1671.10 C 2207.50 1675.40 2140.20 1681.60 2124.70 1730.90 C 2136.90 1717.40 2179.30 1689.20 2322.30 1680.00 C 2540.80 1665.90 2639.00 1391.40 2630.90 1201.10 Z" fill="#d1334a" fill-rule="nonzero" group-id="1" node-id="405" stroke="none" target-height="547.5" target-width="514.30005" target-x="2124.7" target-y="1183.4"></path><path d="M 1835.90 1449.00 L 1825.30 1527.70 C 1825.30 1527.70 1835.90 1597.80 1861.70 1605.80 C 1923.50 1583.80 1949.60 1527.70 1949.60 1527.70 C 1949.60 1527.70 1927.60 1289.30 1935.60 1239.20 C 1943.60 1189.10 1778.70 1137.00 1757.00 1247.20 C 1735.30 1357.40 1768.30 1449.60 1810.90 1449.60 C 1853.50 1449.60 1861.80 1445.60 1861.80 1445.60" fill="#fc9590" fill-rule="nonzero" group-id="1" node-id="407" stroke="none" target-height="468.80005" target-width="214.29993" target-x="1735.3" target-y="1137"></path><path d="M 1741.90 1269.90 C 1741.90 1269.90 1796.70 1300.00 1838.10 1275.90 C 1877.50 1261.90 1866.20 1324.00 1866.20 1324.00 C 1866.20 1324.00 1863.50 1344.00 1877.60 1339.40 C 1891.60 1334.70 1901.00 1305.00 1901.00 1305.00 C 1901.00 1305.00 1918.40 1312.10 1917.70 1340.10 C 1917.00 1368.10 1946.40 1370.10 1946.40 1370.10 C 1946.40 1370.10 1959.80 1292.60 1957.80 1252.50 C 1955.80 1212.40 1926.40 1169.70 1885.70 1178.40 C 1865.70 1158.40 1778.80 1211.50 1710.70 1182.00 C 1704.70 1197.20 1742.30 1245.90 1741.90 1269.90 Z" fill="#102140" fill-rule="nonzero" group-id="1" node-id="409" stroke="none" target-height="211.69995" target-width="255.1001" target-x="1704.7" target-y="1158.4"></path><path d="M 1874.80 1443.20 C 1868.20 1455.30 1857.00 1464.80 1833.80 1467.60 L 1837.00 1448.90 L 1874.80 1443.20 Z" fill="#db6767" fill-rule="nonzero" group-id="1" node-id="411" stroke="none" target-height="24.400024" target-width="41" target-x="1833.8" target-y="1443.2"></path><path d="M 921.60 2538.60 L 968.40 2645.80 C 968.40 2645.80 911.60 2710.90 862.50 2691.90 C 822.40 2599.70 822.40 2599.70 822.40 2599.70 L 921.60 2538.60 Z" fill="#ffffff" fill-rule="nonzero" group-id="1" node-id="413" stroke="none" target-height="172.2998" target-width="146" target-x="822.4" target-y="2538.6"></path><path d="M 935.60 2551.70 C 935.60 2551.70 771.30 1760.90 775.30 1717.30 L 783.30 1513.50 L 721.20 1399.10 C 721.20 1399.10 627.00 1380.80 570.90 1417.40 C 549.50 1431.30 529.60 1440.20 513.20 1445.70 C 521.20 1461.20 531.70 1474.90 533.80 1493.60 C 544.10 1591.30 551.80 1686.30 577.50 1784.00 C 656.50 2070.50 707.10 2361.70 863.70 2612.00 C 908.40 2591.70 935.60 2551.70 935.60 2551.70 Z" fill="#152a52" fill-rule="nonzero" group-id="1" node-id="415" stroke="none" target-height="1231.2" target-width="422.39996" target-x="513.2" target-y="1380.8"></path><path d="M 533.80 1493.70 C 531.70 1474.90 521.20 1461.30 513.20 1445.80 C 486.40 1454.90 468.70 1455.40 468.70 1455.40 C 436.60 1844.30 755.30 2630.00 823.40 2623.30 C 838.00 2621.90 851.50 2617.70 863.70 2612.20 C 707.10 2361.80 656.50 2070.60 577.50 1784.20 C 551.80 1686.40 544.10 1591.30 533.80 1493.70 Z" fill="#102140" fill-rule="nonzero" group-id="1" node-id="417" stroke="none" target-height="1184.2" target-width="427.1" target-x="436.6" target-y="1445.8"></path><path d="M 991.70 2260.40 L 979.30 2339.90 L 1068.60 2339.90 L 1091.90 2255.10 Z" fill="#ffffff" fill-rule="nonzero" group-id="1" node-id="419" stroke="none" target-height="84.799805" target-width="112.60004" target-x="979.3" target-y="2255.1"></path><path d="M 1029.80 2236.40 C 1037.50 2138.70 1070.90 2051.40 1091.50 1956.30 C 1117.20 1848.40 1114.60 1740.40 1099.20 1635.10 C 971.60 1678.40 837.90 1675.20 705.40 1672.20 C 775.90 1695.30 938.40 1724.40 1062.00 1710.10 C 1066.00 1780.90 956.50 2224.80 968.50 2261.10 C 974.10 2278.10 1002.80 2281.30 1031.80 2279.90 C 1028.50 2265.50 1028.50 2250.10 1029.80 2236.40 Z" fill="#102140" fill-rule="nonzero" group-id="1" node-id="421" stroke="none" target-height="646.2001" target-width="411.79993" target-x="705.4" target-y="1635.1"></path><path d="M 1258.30 1577.80 C 1174.10 1509.20 823.40 1270.20 759.30 1275.20 L 587.00 1394.60 L 671.20 1656.00 C 674.50 1660.30 686.70 1666.00 705.40 1672.20 C 838.00 1675.30 971.60 1678.40 1099.20 1635.10 C 1114.60 1740.50 1117.20 1848.40 1091.50 1956.30 C 1070.90 2051.40 1037.50 2138.80 1029.80 2236.40 C 1028.60 2250.10 1028.50 2265.50 1031.70 2279.90 C 1064.60 2278.30 1097.90 2270.80 1097.90 2270.80 C 1097.90 2270.80 1342.40 1646.40 1258.30 1577.80 Z" fill="#152a52" fill-rule="nonzero" group-id="1" node-id="423" stroke="none" target-height="1009.69995" target-width="755.4" target-x="587" target-y="1270.2"></path><path d="M 465.80 1543.70 C 465.80 1543.70 540.30 1603.80 647.50 1564.70 C 754.70 1525.60 894.20 1383.30 881.90 1326.70 C 806.40 1291.20 806.40 1291.20 806.40 1291.20 L 461.70 1488.60 L 465.80 1543.70 Z" fill="#1a1a1a" fill-rule="nonzero" group-id="1" node-id="425" stroke="none" target-height="312.6001" target-width="432.5" target-x="461.7" target-y="1291.2"></path><path d="M 574.50 983.70 C 574.50 983.70 601.70 647.60 646.70 634.00 C 691.60 620.40 801.70 601.70 802.80 683.60 C 804.60 820.40 743.50 834.70 688.80 831.20 C 671.40 898.00 676.80 930.00 676.80 930.00 C 676.80 930.00 654.60 1018.80 574.50 983.70 Z" fill="#fc9590" fill-rule="nonzero" group-id="1" node-id="427" stroke="none" target-height="417.09998" target-width="230.09998" target-x="574.5" target-y="601.7"></path><path d="M 655.40 823.70 L 688.70 831.00 L 684.10 855.80 Z" fill="#e8766f" fill-rule="nonzero" group-id="1" node-id="429" stroke="none" target-height="32.099976" target-width="33.299988" target-x="655.4" target-y="823.7"></path><path d="M 569.70 842.90 L 565.30 911.30 L 699.70 864.90 C 699.70 864.90 659.40 842.30 620.30 842.90 C 581.30 843.60 569.70 842.90 569.70 842.90 Z" fill="#ffffff" fill-rule="nonzero" group-id="1" node-id="431" stroke="none" target-height="69" target-width="134.40002" target-x="565.3" target-y="842.3"></path><path d="M 551.80 1249.50 C 608.30 1334.30 716.30 1316.30 801.10 1293.20 C 818.40 1288.30 835.80 1283.60 853.20 1278.90 C 839.00 1163.70 802.00 902.30 755.30 871.10 C 695.20 831.00 591.70 848.10 551.90 903.50 C 545.30 912.70 538.20 925.20 530.90 940.50 C 502.30 1044.40 486.40 1153.50 551.80 1249.50 Z" fill="#ffde70" fill-rule="nonzero" group-id="1" node-id="433" stroke="none" target-height="503.30005" target-width="366.80002" target-x="486.4" target-y="831"></path><path d="M 801.10 1293.20 C 716.30 1316.30 608.40 1334.30 551.80 1249.50 C 486.40 1153.40 502.30 1044.40 530.90 940.40 C 468.80 1069.90 391.30 1394.50 466.50 1513.00 C 481.80 1537.10 514.60 1552.60 542.90 1556.30 C 727.30 1580.30 859.50 1333.00 859.50 1333.00 C 859.50 1333.00 857.30 1311.90 853.20 1278.80 C 835.80 1283.70 818.30 1288.30 801.10 1293.20 Z" fill="#ffcf4a" fill-rule="nonzero" group-id="1" node-id="435" stroke="none" target-height="639.9" target-width="468.2" target-x="391.3" target-y="940.4"></path><path d="M 846.10 2689.90 C 840.00 2650.50 953.70 2660.20 963.70 2623.70 C 1066.60 2661.80 1104.00 2673.90 1113.30 2696.60 C 1122.70 2719.30 1083.90 2736.10 1083.90 2736.10 L 882.20 2736.10 C 882.20 2736.00 832.80 2725.90 846.10 2689.90 Z" fill="#102140" fill-rule="nonzero" group-id="1" node-id="437" stroke="none" target-height="112.40015" target-width="289.89996" target-x="832.8" target-y="2623.7"></path><path d="M 979.30 2321.20 C 979.30 2321.20 931.60 2403.40 1035.80 2403.40 C 1140.00 2403.40 1178.70 2402.70 1192.10 2389.30 C 1205.50 2375.90 1189.10 2359.20 1157.00 2349.20 C 1125.00 2339.20 1000.90 2301.10 979.30 2321.20 Z" fill="#102140" fill-rule="nonzero" group-id="1" node-id="439" stroke="none" target-height="102.299805" target-width="273.90002" target-x="931.6" target-y="2301.1"></path><path d="M 1348.10 923.00 C 1348.10 923.00 1360.40 862.00 1371.20 840.10 C 1382.10 818.10 1402.40 813.90 1402.40 813.90 C 1402.40 813.90 1410.70 821.60 1406.10 829.20 C 1401.50 836.80 1405.70 846.10 1405.70 846.10 C 1405.70 846.10 1439.20 803.50 1443.40 786.40 C 1454.60 756.40 1482.70 775.50 1482.70 775.50 C 1482.70 775.50 1466.10 850.40 1455.90 875.40 C 1445.80 900.40 1387.40 964.40 1387.40 964.40 C 1387.40 964.40 1343.50 944.40 1348.10 923.00 Z" fill="#fc9590" fill-rule="nonzero" group-id="1,5" node-id="443" stroke="none" target-height="208" target-width="139.19995" target-x="1343.5" target-y="756.4"></path><path d="M 795.90 1100.50 C 965.50 1157.00 1153.10 1172.50 1307.30 1062.00 C 1348.00 1032.20 1377.20 994.50 1403.30 954.60 C 1395.80 945.20 1355.90 898.10 1332.40 930.70 C 1306.30 966.80 1216.20 1036.90 1083.90 1012.90 C 951.60 988.90 755.30 871.30 755.30 871.30 L 679.20 1087.50 C 679.20 1087.50 682.10 1089.00 687.30 1091.60 C 723.50 1087.60 760.40 1089.30 795.90 1100.50 Z" fill="#ffde70" fill-rule="nonzero" group-id="1,5" node-id="445" stroke="none" target-height="301.2" target-width="724.10004" target-x="679.2" target-y="871.3"></path><path d="M 1403.30 954.50 C 1377.20 994.40 1348.00 1032.10 1307.30 1061.90 C 1153.10 1172.40 965.50 1157.00 795.90 1100.40 C 760.40 1089.20 723.50 1087.50 687.20 1091.40 C 742.70 1118.80 1070.60 1271.40 1230.80 1139.50 C 1406.20 995.20 1404.50 956.00 1404.50 956.00 C 1404.50 956.00 1404.10 955.50 1403.30 954.50 Z" fill="#ffb114" fill-rule="nonzero" group-id="1,5" node-id="447" stroke="none" target-height="316.90002" target-width="718.99994" target-x="687.2" target-y="954.5"></path><path d="M 582.30 793.50 C 582.30 793.50 611.70 804.60 637.20 787.90 C 662.70 771.20 662.80 719.80 676.90 716.40 C 691.00 713.00 689.90 751.90 689.90 751.90 C 689.90 751.90 695.20 744.70 699.50 737.20 C 703.80 729.70 705.90 691.20 705.90 691.20 C 705.90 691.20 808.30 697.90 823.50 639.00 C 838.60 580.10 838.60 580.10 838.60 580.10 C 838.60 580.10 776.90 597.50 715.10 583.60 C 653.30 569.80 650.20 609.30 650.20 609.30 C 650.20 609.30 623.60 585.80 605.40 614.90 C 587.20 644.00 565.70 709.60 582.30 793.50 Z" fill="#102140" fill-rule="nonzero" group-id="1" node-id="450" stroke="none" target-height="234.79999" target-width="272.89996" target-x="565.7" target-y="569.8"></path><path d="M 934.30 509.10 C 934.30 509.10 936.20 421.60 974.70 399.10 C 1013.30 376.60 1089.70 374.90 1073.80 396.00 C 1009.30 453.20 1012.30 455.70 1012.30 455.70 C 1012.30 455.70 1031.30 472.20 1060.40 468.70 C 1075.90 472.20 1063.90 502.80 1029.30 494.20 C 1021.30 492.70 997.70 492.70 997.70 492.70 L 986.40 513.70 C 986.40 513.80 950.40 523.00 934.30 509.10 Z" fill="#fc9590" fill-rule="nonzero" group-id="1" node-id="452" stroke="none" target-height="148.1" target-width="155.39996" target-x="934.3" target-y="374.9"></path><path d="M 887.50 1421.50 C 887.50 1421.50 911.50 1492.50 831.40 1513.10" fill="none" group-id="1" node-id="454" stroke="#1a1a1a" stroke-linecap="round" stroke-width="2" target-height="91.599976" target-width="80.099976" target-x="831.4" target-y="1421.5"></path><path d="M 2621.28 2154.72 L 2793.75 2100.16 L 2822.11 2189.78 L 2649.63 2244.34 Z" fill="#ccc4cc" fill-rule="nonzero" group-id="1,6" node-id="458" stroke="none" target-height="144.18018" target-width="200.83008" target-x="2621.28" target-y="2100.16"></path><path d="M 1457.60 3332.60 C 1457.60 3332.60 1466.60 3366.70 1482.10 3359.20 C 1497.60 3351.70 1459.10 3310.10 1494.10 3324.10 C 1529.20 3338.10 1525.20 3368.80 1540.20 3349.20 C 1555.20 3329.60 1536.20 3316.10 1552.70 3317.60 C 1569.20 3319.10 1580.30 3347.20 1580.30 3347.20" fill="none" group-id="1" node-id="461" stroke="#ffffff" stroke-linecap="round" stroke-width="2" target-height="58.69995" target-width="122.70007" target-x="1457.6" target-y="3310.1"></path><path d="M 2441.90 3379.80 C 2441.90 3379.80 2474.60 3405.20 2480.00 3385.50 C 2485.30 3365.80 2413.90 3354.40 2458.30 3351.80 C 2502.70 3349.10 2516.40 3382.50 2523.80 3354.80 C 2531.10 3327.10 2474.70 3328.10 2507.40 3320.10 C 2540.10 3312.10 2555.50 3340.80 2565.50 3323.10 C 2575.50 3305.40 2546.80 3299.70 2536.80 3299.40" fill="none" group-id="1" node-id="463" stroke="#ffffff" stroke-linecap="round" stroke-width="2" target-height="105.80005" target-width="161.6001" target-x="2413.9" target-y="3299.4"></path><path d="M 748.40 3437.50 L 3642.10 3437.50 C 3642.10 3437.50 3390.30 3631.50 2931.00 3563.90 C 2757.20 3667.10 2435.40 3654.80 2278.30 3542.60 C 2051.30 3659.50 1561.90 3630.40 1414.10 3489.60 C 1174.10 3621.60 828.40 3570.10 748.40 3437.50 Z" fill="url(#SVGID_11_)" fill-rule="nonzero" group-id="1" node-id="465" stroke="none" target-height="229.6001" target-width="2893.7002" target-x="748.4" target-y="3437.5"></path><path d="M 3193.30 2538.80 C 3193.30 2538.80 3252.00 2609.60 3296.40 2623.70 C 3291.30 2680.80 3321.90 2759.60 3321.90 2759.60" fill="none" group-id="1" node-id="467" stroke="#1a1a1a" stroke-linecap="round" stroke-width="2" target-height="220.80005" target-width="128.59985" target-x="3193.3" target-y="2538.8"></path><path d="M 366.30 2981.50 L 332.80 3431.00 L 494.60 3430.00 L 455.70 2994.20 Z" fill="#334263" fill-rule="nonzero" group-id="1" node-id="469" stroke="none" target-height="449.5" target-width="161.80002" target-x="332.8" target-y="2981.5"></path><path d="M 745.90 2958.10 L 455.70 2994.20 L 494.60 3430.00 L 822.40 3429.40 Z" fill="#6584c6" fill-rule="nonzero" group-id="1" node-id="471" stroke="none" target-height="471.8999" target-width="366.7" target-x="455.7" target-y="2958.1"></path><path d="M 366.30 2981.50 L 648.30 2942.80 L 745.90 2958.10 L 455.70 2994.20 Z" fill="#152a52" fill-rule="nonzero" group-id="1" node-id="473" stroke="none" target-height="51.399902" target-width="379.60004" target-x="366.3" target-y="2942.8"></path><path d="M 485.80 2973.20 L 511.80 2906.00 L 613.70 2893.30 L 641.10 2897.90 L 675.10 2958.10 L 648.30 2962.90 L 613.70 2914.00 L 546.50 2922.10 L 527.70 2974.40 L 507.50 2981.50 Z" fill="#192132" fill-rule="nonzero" group-id="1" node-id="475" stroke="none" target-height="88.19995" target-width="189.29999" target-x="485.8" target-y="2893.3"></path><path d="M 1190.70 814.10 L 1404.50 652.40 L 1610.70 814.10 L 1816.70 672.60 L 2022.70 545.20 L 2228.80 679.60 L 2434.80 522.30 L 2640.90 585.40 L 2846.90 472.90" fill="none" group-id="1" node-id="477" stroke="#1a1a1a" stroke-linecap="round" stroke-width="2" target-height="341.19998" target-width="1656.2" target-x="1190.7" target-y="472.9"></path><path d="M 1191.31 787.06 L 1195.02 787.39 L 1198.49 788.17 L 1201.78 789.40 L 1204.88 791.04 L 1207.69 793.02 L 1210.24 795.36 L 1212.47 798.01 L 1214.33 800.90 L 1215.84 804.06 L 1216.93 807.40 L 1217.57 810.90 L 1217.75 814.62 L 1217.41 818.32 L 1216.63 821.79 L 1215.40 825.08 L 1213.76 828.18 L 1211.78 830.99 L 1209.44 833.54 L 1206.80 835.77 L 1203.91 837.63 L 1200.74 839.14 L 1197.41 840.23 L 1193.90 840.87 L 1190.19 841.05 L 1186.49 840.71 L 1183.01 839.93 L 1179.73 838.71 L 1176.62 837.07 L 1173.81 835.08 L 1171.27 832.74 L 1169.03 830.10 L 1167.17 827.21 L 1165.66 824.04 L 1164.57 820.71 L 1163.94 817.20 L 1163.76 813.49 L 1164.09 809.79 L 1164.87 806.31 L 1166.10 803.03 L 1167.74 799.93 L 1169.72 797.12 L 1172.06 794.57 L 1174.70 792.34 L 1177.59 790.47 L 1180.76 788.96 L 1184.09 787.88 L 1187.60 787.24 L 1191.31 787.06 Z" fill="#ccc4cc" fill-rule="nonzero" group-id="1,7" node-id="481" stroke="none" target-height="53.98999" target-width="53.98999" target-x="1163.76" target-y="787.06"></path><path d="M 1405.09 621.95 L 1408.79 622.30 L 1412.26 623.08 L 1415.55 624.31 L 1418.64 625.96 L 1421.45 627.95 L 1424.00 630.29 L 1426.22 632.94 L 1428.08 635.84 L 1429.59 639.00 L 1430.66 642.34 L 1431.29 645.85 L 1431.47 649.56 L 1431.13 653.26 L 1430.34 656.74 L 1429.11 660.02 L 1427.46 663.12 L 1425.47 665.92 L 1423.13 668.47 L 1420.48 670.69 L 1417.59 672.55 L 1414.42 674.06 L 1411.08 675.14 L 1407.58 675.77 L 1403.86 675.94 L 1400.16 675.60 L 1396.69 674.81 L 1393.40 673.58 L 1390.31 671.93 L 1387.50 669.94 L 1384.96 667.60 L 1382.73 664.95 L 1380.87 662.06 L 1379.37 658.89 L 1378.29 655.55 L 1377.66 652.05 L 1377.48 648.33 L 1377.83 644.63 L 1378.61 641.16 L 1379.84 637.88 L 1381.49 634.78 L 1383.48 631.97 L 1385.82 629.43 L 1388.47 627.20 L 1391.37 625.34 L 1394.53 623.84 L 1397.87 622.76 L 1401.38 622.13 L 1405.09 621.95 Z" fill="#d1334a" fill-rule="nonzero" group-id="1,8" node-id="486" stroke="none" target-height="53.98999" target-width="53.98999" target-x="1377.48" target-y="621.95"></path><path d="M 1611.31 787.05 L 1615.02 787.39 L 1618.49 788.17 L 1621.78 789.39 L 1624.88 791.03 L 1627.69 793.02 L 1630.24 795.36 L 1632.47 798.00 L 1634.33 800.89 L 1635.84 804.06 L 1636.93 807.39 L 1637.57 810.90 L 1637.75 814.61 L 1637.41 818.31 L 1636.63 821.79 L 1635.41 825.07 L 1633.77 828.17 L 1631.78 830.99 L 1629.44 833.53 L 1626.80 835.76 L 1623.91 837.63 L 1620.74 839.14 L 1617.41 840.23 L 1613.90 840.86 L 1610.19 841.04 L 1606.49 840.71 L 1603.01 839.93 L 1599.73 838.70 L 1596.63 837.06 L 1593.81 835.08 L 1591.27 832.74 L 1589.04 830.10 L 1587.17 827.20 L 1585.66 824.04 L 1584.57 820.70 L 1583.94 817.20 L 1583.76 813.49 L 1584.09 809.78 L 1584.87 806.31 L 1586.10 803.02 L 1587.74 799.92 L 1589.72 797.11 L 1592.06 794.56 L 1594.70 792.33 L 1597.60 790.47 L 1600.76 788.96 L 1604.10 787.87 L 1607.60 787.23 L 1611.31 787.05 Z" fill="#d1334a" fill-rule="nonzero" group-id="1,9" node-id="491" stroke="none" target-height="53.98999" target-width="53.98999" target-x="1583.76" target-y="787.05"></path><path d="M 1807.42 657.91 L 1811.12 658.26 L 1814.60 659.04 L 1817.88 660.27 L 1820.98 661.92 L 1823.79 663.91 L 1826.33 666.25 L 1828.55 668.90 L 1830.41 671.80 L 1831.92 674.97 L 1833.00 678.30 L 1833.63 681.81 L 1833.80 685.52 L 1833.46 689.22 L 1832.67 692.70 L 1831.44 695.98 L 1829.79 699.08 L 1827.81 701.88 L 1825.46 704.43 L 1822.82 706.65 L 1819.92 708.51 L 1816.75 710.02 L 1813.42 711.10 L 1809.91 711.73 L 1806.20 711.90 L 1802.49 711.56 L 1799.02 710.77 L 1795.74 709.54 L 1792.64 707.89 L 1789.83 705.90 L 1787.29 703.56 L 1785.06 700.91 L 1783.20 698.02 L 1781.70 694.85 L 1780.62 691.51 L 1779.99 688.01 L 1779.82 684.29 L 1780.16 680.59 L 1780.95 677.12 L 1782.18 673.84 L 1783.82 670.74 L 1785.81 667.93 L 1788.16 665.39 L 1790.80 663.16 L 1793.70 661.30 L 1796.87 659.80 L 1800.20 658.72 L 1803.71 658.09 L 1807.42 657.91 Z" fill="#ccc4cc" fill-rule="nonzero" group-id="1,10" node-id="496" stroke="none" target-height="53.99005" target-width="53.980103" target-x="1779.82" target-y="657.91"></path><path d="M 2045.76 545.97 L 2045.58 549.69 L 2044.94 553.19 L 2043.85 556.52 L 2042.33 559.69 L 2040.46 562.57 L 2038.22 565.21 L 2035.67 567.55 L 2032.86 569.53 L 2029.76 571.16 L 2026.47 572.38 L 2022.99 573.16 L 2019.29 573.49 L 2015.58 573.30 L 2012.07 572.66 L 2008.74 571.57 L 2005.58 570.05 L 2002.69 568.18 L 2000.05 565.95 L 1997.71 563.40 L 1995.73 560.58 L 1994.10 557.48 L 1992.88 554.19 L 1992.10 550.71 L 1991.78 547.01 L 1991.96 543.30 L 1992.60 539.79 L 1993.69 536.46 L 1995.21 533.30 L 1997.08 530.41 L 1999.32 527.77 L 2001.87 525.44 L 2004.68 523.46 L 2007.78 521.82 L 2011.07 520.60 L 2014.55 519.83 L 2018.25 519.50 L 2021.96 519.68 L 2025.47 520.33 L 2028.80 521.42 L 2031.96 522.93 L 2034.85 524.80 L 2037.49 527.04 L 2039.83 529.59 L 2041.81 532.40 L 2043.44 535.51 L 2044.66 538.79 L 2045.44 542.27 L 2045.76 545.97 Z" fill="#d1334a" fill-rule="nonzero" group-id="1,11" node-id="501" stroke="none" target-height="53.98999" target-width="53.97998" target-x="1991.78" target-y="519.5"></path><path d="M 2229.31 652.57 L 2233.01 652.91 L 2236.49 653.69 L 2239.77 654.91 L 2242.87 656.55 L 2245.68 658.54 L 2248.23 660.88 L 2250.46 663.52 L 2252.33 666.41 L 2253.84 669.58 L 2254.92 672.91 L 2255.56 676.42 L 2255.74 680.13 L 2255.40 683.83 L 2254.62 687.31 L 2253.40 690.59 L 2251.76 693.69 L 2249.77 696.51 L 2247.44 699.05 L 2244.79 701.28 L 2241.90 703.15 L 2238.73 704.66 L 2235.40 705.75 L 2231.90 706.38 L 2228.18 706.56 L 2224.48 706.23 L 2221.00 705.45 L 2217.72 704.22 L 2214.62 702.58 L 2211.81 700.60 L 2209.26 698.26 L 2207.03 695.62 L 2205.16 692.72 L 2203.65 689.56 L 2202.57 686.22 L 2201.93 682.72 L 2201.75 679.01 L 2202.08 675.30 L 2202.87 671.83 L 2204.09 668.54 L 2205.73 665.44 L 2207.71 662.63 L 2210.05 660.08 L 2212.70 657.85 L 2215.59 655.99 L 2218.76 654.48 L 2222.09 653.39 L 2225.59 652.75 L 2229.31 652.57 Z" fill="#d1334a" fill-rule="nonzero" group-id="1,12" node-id="506" stroke="none" target-height="53.98999" target-width="53.98999" target-x="2201.75" target-y="652.57"></path><path d="M 2441.60 498.27 L 2445.30 498.61 L 2448.78 499.39 L 2452.06 500.62 L 2455.16 502.27 L 2457.97 504.25 L 2460.52 506.59 L 2462.74 509.24 L 2464.60 512.13 L 2466.11 515.30 L 2467.19 518.64 L 2467.83 522.14 L 2468.00 525.86 L 2467.66 529.56 L 2466.87 533.04 L 2465.65 536.32 L 2464.00 539.42 L 2462.01 542.23 L 2459.67 544.77 L 2457.03 547.00 L 2454.13 548.86 L 2450.96 550.37 L 2447.63 551.45 L 2444.12 552.08 L 2440.41 552.26 L 2436.71 551.92 L 2433.23 551.13 L 2429.95 549.90 L 2426.85 548.26 L 2424.04 546.27 L 2421.50 543.93 L 2419.27 541.28 L 2417.41 538.39 L 2415.90 535.22 L 2414.82 531.88 L 2414.19 528.38 L 2414.01 524.66 L 2414.35 520.96 L 2415.14 517.49 L 2416.36 514.20 L 2418.01 511.10 L 2420.00 508.30 L 2422.34 505.75 L 2424.99 503.52 L 2427.88 501.66 L 2431.05 500.16 L 2434.38 499.07 L 2437.89 498.44 L 2441.60 498.27 Z" fill="#ccc4cc" fill-rule="nonzero" group-id="1,13" node-id="511" stroke="none" target-height="53.99002" target-width="53.98999" target-x="2414.01" target-y="498.27"></path><path d="M 2645.13 556.77 L 2648.83 557.11 L 2652.30 557.90 L 2655.58 559.13 L 2658.68 560.78 L 2661.49 562.77 L 2664.03 565.11 L 2666.26 567.76 L 2668.12 570.65 L 2669.62 573.82 L 2670.70 577.16 L 2671.33 580.66 L 2671.50 584.38 L 2671.16 588.08 L 2670.37 591.55 L 2669.14 594.83 L 2667.50 597.93 L 2665.51 600.74 L 2663.17 603.28 L 2660.52 605.51 L 2657.62 607.37 L 2654.45 608.87 L 2651.12 609.95 L 2647.61 610.58 L 2643.90 610.75 L 2640.20 610.41 L 2636.72 609.62 L 2633.44 608.39 L 2630.34 606.75 L 2627.54 604.76 L 2624.99 602.42 L 2622.77 599.77 L 2620.91 596.87 L 2619.40 593.70 L 2618.32 590.37 L 2617.69 586.86 L 2617.52 583.15 L 2617.86 579.45 L 2618.65 575.97 L 2619.88 572.69 L 2621.53 569.59 L 2623.52 566.79 L 2625.86 564.24 L 2628.51 562.02 L 2631.40 560.16 L 2634.57 558.65 L 2637.91 557.57 L 2641.41 556.94 L 2645.13 556.77 Z" fill="#ccc4cc" fill-rule="nonzero" group-id="1,14" node-id="516" stroke="none" target-height="53.97998" target-width="53.97998" target-x="2617.52" target-y="556.77"></path><path d="M 2847.55 446.05 L 2851.25 446.39 L 2854.72 447.18 L 2858.00 448.41 L 2861.10 450.06 L 2863.91 452.04 L 2866.45 454.39 L 2868.68 457.03 L 2870.54 459.93 L 2872.04 463.10 L 2873.12 466.43 L 2873.75 469.94 L 2873.92 473.65 L 2873.58 477.36 L 2872.79 480.83 L 2871.56 484.11 L 2869.92 487.21 L 2867.93 490.02 L 2865.58 492.56 L 2862.94 494.79 L 2860.04 496.65 L 2856.87 498.15 L 2853.54 499.23 L 2850.03 499.86 L 2846.32 500.03 L 2842.61 499.69 L 2839.14 498.90 L 2835.86 497.67 L 2832.76 496.02 L 2829.95 494.04 L 2827.41 491.69 L 2825.18 489.05 L 2823.33 486.15 L 2821.82 482.98 L 2820.74 479.65 L 2820.11 476.14 L 2819.94 472.43 L 2820.28 468.72 L 2821.07 465.25 L 2822.30 461.97 L 2823.95 458.87 L 2825.93 456.06 L 2828.28 453.52 L 2830.93 451.29 L 2833.82 449.44 L 2836.99 447.93 L 2840.32 446.85 L 2843.83 446.22 L 2847.55 446.05 Z" fill="#d1334a" fill-rule="nonzero" group-id="1,15" node-id="521" stroke="none" target-height="53.98001" target-width="53.97998" target-x="2819.94" target-y="446.05"></path><path d="M 3517.40 2737.00 L 3156.90 2737.00 L 3163.90 2791.60 L 3510.30 2791.60 Z" fill="#572658" fill-rule="nonzero" group-id="1" node-id="524" stroke="none" target-height="54.600098" target-width="360.5" target-x="3156.9" target-y="2737"></path><path d="M 3163.90 2791.60 L 3166.80 2814.10 L 3507.50 2814.10 L 3510.30 2791.60 Z" fill="#102140" fill-rule="nonzero" group-id="1" node-id="526" stroke="none" target-height="22.5" target-width="346.40015" target-x="3163.9" target-y="2791.6"></path></g><path d="M 378.80 3002.30 L 444.20 3015.10 L 475.30 3430.00 L 347.10 3430.00 Z" fill="#192132" fill-rule="nonzero" node-id="529" stroke="none" target-height="427.69995" target-width="128.19998" target-x="347.1" target-y="3002.3"></path></svg>